<svg width="375" height="667" viewBox="0 0 375 667" fill="none" xmlns="http://www.w3.org/2000/svg">
<rect width="375" height="667" fill="url(#paint0_linear)"/>
<g opacity="0.05">
<path d="M240.629 82.0758C230.929 74.1278 237.117 54.7813 255.547 35.4261C265.625 24.8394 268.159 23.5127 273.173 26.1951C281.152 30.46 291.082 44.9102 291.082 52.2561C291.082 59.2034 279.329 84.6127 276.115 84.6127C271.368 84.6127 270.521 78.2473 273.986 68.6671C278.06 57.4142 276.018 52.8117 269.391 58.3073C262.183 64.28 260.561 81.0314 266.071 92.5695C268.753 98.1901 271.423 102.298 272.009 101.702C276.237 97.3581 293.986 68.862 295.573 63.861C297.122 58.991 298.089 58.5226 300.092 61.682C305.943 70.9101 302.745 81.1158 290.028 93.7797C283.042 100.739 275.762 109.426 273.852 113.083C270.468 119.564 270.066 119.308 257.941 102.9C251.1 93.643 243.308 84.2694 240.629 82.0758Z" fill="white"/>
<path d="M244.478 114.092C244.47 113.08 236.956 103.843 227.784 93.5674L211.103 74.8871L220.967 76.8567C233.567 79.3761 237.714 82.9341 245.032 97.5094C248.299 104.017 253.672 112.288 256.974 115.887C260.276 119.486 262.422 122.45 261.741 122.471C261.062 122.494 249.368 126.404 235.754 131.161C222.14 135.917 208.981 139.827 206.511 139.851C196.278 139.938 165.877 100.384 170.469 92.9593C173.259 88.45 190.62 81.7035 199.429 81.7035C209.251 81.7035 236.097 106.016 229.196 108.663C226.694 109.621 220.413 107.241 215.084 103.313C208.823 98.6964 204.49 97.2272 202.632 99.0833C198.515 103.197 208.445 113.129 219.813 116.262C229.257 118.869 244.502 117.528 244.478 114.092Z" fill="white"/>
<path d="M301.694 87.5947C304.489 82.8701 308.814 78.4742 311.304 77.8283C323.598 74.6369 369.728 88.4878 369.696 95.3624C369.672 100.314 358.016 116.51 351.318 120.894C342.803 126.468 311.467 124.123 311.467 117.912C311.467 112.87 316.88 111.29 328.211 113.021C335.573 114.144 337.675 113.426 337.675 109.778C337.675 98.8506 309.16 101.783 298.246 113.833C295.395 116.981 293.598 119.969 294.254 120.469C296.971 122.541 332.262 131.166 338.359 131.254C344.786 131.344 344.81 131.454 339.303 135.618C331.068 141.84 317.835 140.819 301.275 132.679C293.266 128.743 284.423 125.482 281.618 125.432C274.743 125.31 274.999 124.475 286.569 109.333C292.096 102.103 298.901 92.3193 301.694 87.5947Z" fill="white"/>
<path d="M236.592 137.29C245.861 136.039 254.97 133.491 256.831 131.632C263.625 124.845 264.874 128.804 264.874 157.131C264.874 184.932 264.583 186.241 257.134 192.095C248.075 199.217 221.182 207.616 211.738 206.277C206.005 205.463 205.067 203.391 204.289 189.837C203.753 180.499 204.84 172.594 207.018 169.973C212.594 163.258 238.121 151.2 240.075 154.356C241.872 157.262 234.784 165.184 225.305 170.86C217.597 175.48 223.826 182.529 231.834 178.247C243.797 171.852 256.785 148.25 250.483 144.357C247.789 142.693 213.724 155.581 207.769 160.518C200.396 166.633 203.253 157.958 211.73 148.5C218.174 141.311 223.031 139.12 236.592 137.29Z" fill="white"/>
<path d="M270.905 157.876C272.565 150.481 273.127 141.276 272.16 137.418C270.588 131.158 271.118 130.631 277.099 132.525C280.785 133.692 292.853 137.058 303.913 140.005C314.973 142.952 325.998 147.339 328.412 149.754C333.467 154.801 336.37 181.333 333.525 196.485C331.784 205.754 330.64 206.801 322.256 206.795C317.122 206.795 308.403 204.503 302.879 201.704C292.847 196.624 291.205 193.445 286.991 170.915C285.191 161.303 285.596 159.892 289.918 160.733C292.678 161.268 296.452 166.211 298.304 171.716C300.159 177.217 303.223 182.235 305.116 182.867C310.2 184.56 309.396 168.568 304.009 160.884C300.104 155.313 285.649 145.707 281.173 145.707C279.825 145.707 280.905 162.554 283.735 185.715C284.766 194.128 284.306 194.859 279.56 192.322C271.027 187.76 267.422 173.406 270.905 157.876Z" fill="white"/>
<path d="M358.164 169.897L364.83 163.642C367.044 161.563 370.901 158.773 375 156.195V163.398C369.639 170.202 365.614 179.546 361.396 193.712C347.075 241.82 322.474 258.652 270.853 255.668C248.302 254.364 232.842 248.525 232.842 241.313C232.842 237.482 243.826 239.274 261.962 246.067C292.474 257.495 330.363 239.204 340.642 208.087C342.579 202.228 343.63 188.057 343.021 176.012C342.422 164.143 342.844 154.435 343.959 154.435C345.075 154.435 348.729 157.914 352.075 162.167L358.164 169.897Z" fill="white"/>
<path d="M370.907 200.514C360.641 198.525 363.756 190.237 375 183.361V200.937C373.649 200.925 372.29 200.782 370.907 200.514Z" fill="white"/>
</g>
<g opacity="0.05">
<path d="M46.6285 421.076C36.9286 413.128 43.1166 393.781 61.5469 374.426C71.6255 363.839 74.1589 362.513 79.1735 365.195C87.1524 369.46 97.0825 383.91 97.0825 391.256C97.0825 398.203 85.3295 423.613 82.1146 423.613C77.368 423.613 76.5206 417.247 79.9859 407.667C84.0598 396.414 82.0185 391.812 75.3907 397.307C68.1834 403.28 66.5614 420.031 72.071 431.569C74.753 437.19 77.4233 441.298 78.0086 440.702C82.2369 436.358 99.9858 407.862 101.573 402.861C103.122 397.991 104.089 397.523 106.092 400.682C111.943 409.91 108.745 420.116 96.0283 432.78C89.0423 439.739 81.7622 448.426 79.8519 452.083C76.4681 458.564 76.0663 458.308 63.9406 441.9C57.1002 432.643 49.3076 423.269 46.6285 421.076Z" fill="white"/>
<path d="M50.4783 453.092C50.4695 452.08 42.9565 442.843 33.7836 432.567L17.1035 413.887L26.9665 415.857C39.5669 418.376 43.7136 421.934 51.0316 436.509C54.2989 443.017 59.6716 451.288 62.9738 454.887C66.2761 458.486 68.4222 461.45 67.7408 461.471C67.0623 461.494 55.3676 465.404 41.7538 470.161C28.1401 474.917 14.9806 478.827 12.5112 478.851C9.5702 478.876 4.9633 475.626 0 470.806V421.302C1.99576 420.92 3.84987 420.703 5.4291 420.703C15.2514 420.703 42.0974 445.016 35.1959 447.663C32.6945 448.621 26.4132 446.241 21.0842 442.313C14.8233 437.696 10.4902 436.227 8.63234 438.083C4.51472 442.197 14.4448 452.129 25.8134 455.262C35.2571 457.869 50.5016 456.528 50.4783 453.092Z" fill="white"/>
<path d="M107.694 426.595C110.489 421.87 114.814 417.474 117.304 416.828C129.598 413.637 175.728 427.488 175.696 434.362C175.672 439.314 164.016 455.51 157.318 459.894C148.803 465.468 117.467 463.123 117.467 456.912C117.467 451.87 122.88 450.29 134.211 452.021C141.573 453.144 143.675 452.426 143.675 448.778C143.675 437.851 115.16 440.783 104.246 452.833C101.395 455.981 99.5985 458.969 100.254 459.469C102.971 461.541 138.262 470.166 144.359 470.254C150.786 470.344 150.81 470.454 145.303 474.618C137.068 480.84 123.835 479.819 107.275 471.679C99.2665 467.743 90.4227 464.482 87.6184 464.432C80.743 464.31 80.9993 463.475 92.5688 448.333C98.0958 441.103 104.901 431.319 107.694 426.595Z" fill="white"/>
<path d="M42.5925 476.29C51.8615 475.039 60.9703 472.491 62.8311 470.632C69.6249 463.845 70.8742 467.804 70.8742 496.131C70.8742 523.932 70.5829 525.241 63.1339 531.095C54.0746 538.217 27.182 546.616 17.7383 545.277C12.0045 544.463 11.0668 542.391 10.2893 528.837C9.7535 519.499 10.8397 511.594 13.0179 508.973C18.5944 502.258 44.1213 490.2 46.0752 493.356C47.872 496.262 40.7841 504.184 31.3054 509.86C23.5973 514.48 29.8261 521.529 37.8342 517.247C49.7969 510.852 62.7845 487.25 56.4829 483.357C53.7892 481.693 19.7243 494.581 13.7692 499.518C6.39589 505.633 9.25261 496.958 17.7295 487.5C24.1739 480.311 29.0311 478.12 42.5925 476.29Z" fill="white"/>
<path d="M76.905 496.876C78.5648 489.481 79.1268 480.276 78.16 476.418C76.5875 470.158 77.1175 469.631 83.0989 471.525C86.7855 472.692 98.853 476.058 109.913 479.005C120.973 481.952 131.998 486.339 134.412 488.754C139.467 493.801 142.37 520.333 139.525 535.485C137.784 544.754 136.64 545.801 128.256 545.795C123.122 545.795 114.403 543.503 108.879 540.704C98.8471 535.624 97.2048 532.445 92.9911 509.915C91.1914 500.303 91.5962 498.892 95.9177 499.733C98.6783 500.268 102.452 505.211 104.304 510.716C106.159 516.217 109.223 521.235 111.116 521.867C116.2 523.56 115.396 507.568 110.009 499.884C106.104 494.313 91.6486 484.707 87.1728 484.707C85.8245 484.707 86.9049 501.554 89.7354 524.715C90.7663 533.128 90.3062 533.859 85.5595 531.322C77.0273 526.76 73.4222 512.406 76.905 496.876Z" fill="white"/>
<path d="M170.83 502.642C174.496 499.201 182.661 493.81 188.978 490.662C203.835 483.255 209.615 483.206 195.597 490.604C181.453 498.069 174.714 508.132 167.396 532.712C153.075 580.82 128.474 597.652 76.8525 594.668C54.3017 593.364 38.8418 587.525 38.8418 580.313C38.8418 576.482 49.826 578.274 67.9621 585.067C98.4744 596.495 136.363 578.204 146.642 547.087C148.579 541.228 149.63 527.057 149.021 515.012C148.422 503.143 148.844 493.435 149.959 493.435C151.075 493.435 154.729 496.914 158.075 501.167L164.164 508.897L170.83 502.642Z" fill="white"/>
<path d="M198.861 502.162C190.92 502.162 190.087 501.522 193.18 497.798C197.848 492.181 211.493 492.216 222.446 497.874C231.31 502.453 233.928 507.981 227.236 507.981C225.145 507.981 217.146 514.535 209.461 522.547C195.71 536.884 186.936 541.455 176.907 539.514C163.783 536.971 172.527 524.133 192.169 517.113C209.289 510.995 213.244 502.162 198.861 502.162Z" fill="white"/>
</g>
<defs>
<linearGradient id="paint0_linear" x1="0" y1="0" x2="531.873" y2="500.19" gradientUnits="userSpaceOnUse">
<stop stop-color="#47233A"/>
<stop offset="1" stop-color="#340F27"/>
</linearGradient>
</defs>
</svg>
