<svg width="27" height="27" viewBox="0 0 27 27" fill="none" xmlns="http://www.w3.org/2000/svg">
<path fill-rule="evenodd" clip-rule="evenodd" d="M0.440438 0.43934C1.02622 -0.146447 1.97597 -0.146447 2.56176 0.43934L13.5011 11.3787L24.4404 0.43934C25.0262 -0.146447 25.976 -0.146447 26.5618 0.43934C27.1475 1.02513 27.1475 1.97487 26.5618 2.56066L15.6224 13.5L26.5618 24.4393C27.1475 25.0251 27.1475 25.9749 26.5618 26.5607C25.976 27.1464 25.0262 27.1464 24.4404 26.5607L13.5011 15.6213L2.56176 26.5607C1.97597 27.1464 1.02622 27.1464 0.440438 26.5607C-0.145348 25.9749 -0.145348 25.0251 0.440438 24.4393L11.3798 13.5L0.440438 2.56066C-0.145348 1.97487 -0.145348 1.02513 0.440438 0.43934Z" fill="black"/>
</svg>
