<svg width="27" height="27" viewBox="0 0 27 27" fill="none" xmlns="http://www.w3.org/2000/svg">
<path fill-rule="evenodd" clip-rule="evenodd" d="M13.5 24.3871C19.5128 24.3871 24.3871 19.5128 24.3871 13.5C24.3871 7.48722 19.5128 2.6129 13.5 2.6129C7.48722 2.6129 2.6129 7.48722 2.6129 13.5C2.6129 19.5128 7.48722 24.3871 13.5 24.3871ZM13.5 27C20.9558 27 27 20.9558 27 13.5C27 6.04416 20.9558 0 13.5 0C6.04416 0 0 6.04416 0 13.5C0 20.9558 6.04416 27 13.5 27Z" fill="white"/>
<path d="M12.1936 12.629C12.1936 11.9075 12.7785 11.3226 13.5001 11.3226C14.2216 11.3226 14.8065 11.9075 14.8065 12.629V18.7258C14.8065 19.4473 14.2216 20.0323 13.5001 20.0323C12.7785 20.0323 12.1936 19.4473 12.1936 18.7258V12.629Z" fill="white"/>
<path d="M12.1936 8.27419C12.1936 7.55266 12.7785 6.96774 13.5001 6.96774C14.2216 6.96774 14.8065 7.55266 14.8065 8.27419C14.8065 8.99573 14.2216 9.58065 13.5001 9.58065C12.7785 9.58065 12.1936 8.99573 12.1936 8.27419Z" fill="white"/>
</svg>
