<svg width="255" height="159" viewBox="0 0 255 159" fill="none" xmlns="http://www.w3.org/2000/svg">
<path d="M2.15504 158.517C-1.70743 157.064 -0.24695 144.944 5.4872 130.866C6.70663 127.874 7.97711 127.042 11.3334 127.042C16.4139 127.042 16.4181 127.072 12.7853 136.442C11.227 140.464 9.95088 144.375 9.95088 145.131C9.95088 148.743 13.4234 145.628 19.2653 136.774C23.4894 130.371 26.6032 127.042 28.3685 127.042C32.5614 127.042 32.8109 128.894 29.7836 137.524C28.2338 141.939 26.9662 146.131 26.9662 146.84C26.9662 150.022 30.8811 146.334 34.8159 139.445C38.209 133.504 39.8609 131.908 42.6146 131.908C45.0718 131.908 45.9099 132.527 45.4405 133.994C45.0747 135.141 44.7202 141.084 44.6536 147.201C44.5373 158.039 44.4451 158.324 41.0676 158.324C38.3905 158.324 37.2533 157.27 36.0764 153.702L34.5536 149.08L30.6259 154.129C25.4858 160.736 19.9204 160.608 17.6858 153.83L16.204 149.335L13.7113 153.474C11.1689 157.695 5.98348 159.957 2.15504 158.517Z" fill="white"/>
<path d="M119.746 135.384C117.317 135.384 117.157 133.443 119.264 129.582C120.304 127.678 121.282 127.204 122.24 128.143C124.15 130.016 122.301 135.384 119.746 135.384Z" fill="white"/>
<path d="M233.837 156.648C232.549 155.386 235.533 139.943 237.742 136.439C239.212 134.108 243.911 135.422 243.911 138.165C243.911 141.65 244.684 141.644 249.248 138.124C251.898 136.081 253.326 135.725 254.434 136.833C255.534 137.932 255.06 139.085 252.755 140.934C250.989 142.349 248.831 143.74 247.958 144.025C245.189 144.93 248.156 150.621 251.876 151.538C256.521 152.68 255.761 156.791 250.798 157.357C248.169 157.658 246.239 156.739 244.226 154.229C241.033 150.249 239.657 149.757 239.657 152.593C239.657 155.511 235.576 158.354 233.837 156.648Z" fill="white"/>
<path d="M51.4242 151.025C51.817 147.392 52.8393 142.7 53.6972 140.598C54.7223 138.081 56.3005 136.774 58.3112 136.774C61.0124 136.774 61.2747 137.34 60.5629 141.64C59.5675 147.649 60.6678 147.752 65.7086 142.12C67.9489 139.617 70.1354 138.274 70.8046 138.992C71.4484 139.684 71.6625 144.161 71.2782 148.939C70.677 156.431 70.1964 157.628 67.783 157.628C66.1779 157.628 64.6692 156.444 64.2438 154.848C63.3293 151.419 62.6316 151.419 58.1609 154.848C52.1984 159.42 50.6132 158.522 51.4242 151.025Z" fill="white"/>
<path d="M76.5941 154.662C76.5941 150.873 79.5165 140.781 81.2705 138.512C82.0092 137.557 83.8852 136.774 85.4406 136.774C87.5704 136.774 88.0851 137.461 87.5264 139.555C86.6416 142.875 89.598 143.314 92.1914 140.25C94.1936 137.884 97.2875 137.517 98.5353 139.495C98.9961 140.228 97.279 141.871 94.7196 143.149C88.6608 146.17 88.8862 145.831 90.7083 149.167C91.5789 150.762 93.4392 152.067 94.8416 152.067C98.3963 152.067 99.5421 153.56 97.6775 155.763C95.0642 158.849 89.6477 157.968 87.0145 154.026L84.6069 150.424L82.6827 154.026C80.346 158.397 76.5941 158.788 76.5941 154.662Z" fill="white"/>
<path d="M113.883 149.839C114.344 145.469 115.759 140.905 117.107 139.444C120.299 135.986 121.968 137.262 121.968 143.157C121.968 149.748 118.425 157.628 115.461 157.628C113.398 157.628 113.178 156.544 113.883 149.839Z" fill="white"/>
<path d="M166.615 157.628C162.423 157.628 164.519 152.197 172.926 141.268C174.828 138.796 177.237 136.774 178.279 136.774C181.058 136.774 183.134 143.334 182.652 150.592C182.302 155.868 181.754 156.933 179.395 156.933C177.232 156.933 176.454 155.861 176.115 152.415C175.537 146.531 173.391 146.672 170.796 152.762C169.655 155.439 167.773 157.628 166.615 157.628Z" fill="white"/>
<path d="M188.393 147.685C189.329 143.71 190.818 139.602 191.704 138.557C194.692 135.028 197.865 137.139 197.424 142.362L197.02 147.146L201.771 142.632C204.385 140.147 206.958 138.544 207.493 139.067C208.026 139.59 208.463 143.687 208.463 148.172C208.463 157.501 205.617 160.331 201.387 155.211L199.006 152.329L194.429 155.169C187.893 159.229 186.175 157.102 188.393 147.685Z" fill="white"/>
<path d="M212.716 151.025C212.716 146.819 216.27 140.093 219.452 138.276C225.649 134.736 232.298 138.323 228.298 143.049C225.905 145.878 223.944 145.654 225.079 142.683C225.893 140.553 225.712 140.488 223.616 142.157C220.579 144.581 220.378 152.067 223.351 152.067C224.521 152.067 225.478 151.442 225.478 150.677C225.478 149.912 226.435 149.287 227.605 149.287C230.825 149.287 230.163 151.533 225.995 154.746C219.508 159.75 212.716 157.847 212.716 151.025Z" fill="white"/>
<path fill-rule="evenodd" clip-rule="evenodd" d="M145.539 128.156C145.153 128.769 142.89 135.181 140.511 142.406C136.447 154.748 136.335 155.654 138.647 157.389C144.641 161.884 160.667 155.777 162.589 148.265C163.836 143.399 158.571 138.981 152.861 140.101C148.58 140.94 147.976 139.691 150.462 135.137C151.756 132.765 152.915 132.431 157.403 133.135C162.859 133.991 164.823 132.581 163.47 128.78C162.778 126.835 146.723 126.276 145.539 128.156ZM148.027 153.458C152.037 153.458 155.229 150.165 154.075 147.219C153.01 144.496 149.706 144.533 146.883 147.3C143.585 150.535 144.128 153.458 148.027 153.458Z" fill="white"/>
<path d="M98.8988 27.6731C94.1059 23.8195 97.1635 14.4394 106.27 5.05508C111.25 -0.0778826 112.502 -0.721096 114.98 0.579424C118.922 2.64728 123.829 9.65345 123.829 13.2151C123.829 16.5834 118.022 28.9031 116.433 28.9031C114.088 28.9031 113.669 25.8169 115.381 21.1719C117.394 15.716 116.386 13.4845 113.111 16.149C109.549 19.0448 108.748 27.1667 111.47 32.761C112.796 35.4861 114.115 37.4778 114.404 37.1887C116.494 35.0827 125.264 21.2664 126.048 18.8417C126.813 16.4805 127.291 16.2534 128.281 17.7852C131.172 22.2595 129.592 27.2077 123.308 33.3478C119.856 36.7218 116.259 40.9337 115.315 42.7067C113.643 45.8494 113.445 45.7253 107.453 37.7698C104.073 33.2815 100.223 28.7367 98.8988 27.6731Z" fill="white"/>
<path d="M100.801 43.1962C100.797 42.7053 97.0844 38.2268 92.5519 33.2448L84.3099 24.1877L89.1835 25.1426C95.4095 26.3642 97.4585 28.0892 101.074 35.1561C102.689 38.3115 105.344 42.3216 106.975 44.0665C108.607 45.8113 109.667 47.2487 109.331 47.2585C108.995 47.2698 103.217 49.1656 96.4901 51.4718C89.7633 53.7781 83.261 55.6738 82.0408 55.6851C76.9846 55.7274 61.9626 36.5497 64.2317 32.95C65.6102 30.7636 74.1888 27.4926 78.5414 27.4926C83.3948 27.4926 96.6599 39.2805 93.2497 40.5641C92.0137 41.0282 88.9101 39.8743 86.2769 37.9701C83.1833 35.7316 81.0422 35.0192 80.1242 35.9192C78.0896 37.9137 82.9962 42.7293 88.6137 44.2484C93.28 45.5123 100.813 44.862 100.801 43.1962Z" fill="white"/>
<path d="M129.072 30.3489C130.454 28.0582 132.59 25.9269 133.821 25.6137C139.896 24.0664 162.689 30.782 162.673 34.1151C162.662 36.5158 156.902 44.3683 153.592 46.494C149.385 49.1966 133.901 48.0597 133.901 45.0482C133.901 42.6037 136.576 41.8378 142.175 42.6771C145.812 43.2215 146.851 42.8731 146.851 41.1043C146.851 35.8063 132.762 37.2282 127.369 43.0706C125.96 44.5968 125.072 46.0455 125.396 46.2881C126.738 47.2924 144.176 51.4746 147.189 51.5169C150.365 51.5607 150.376 51.6143 147.656 53.6328C143.586 56.6499 137.048 56.1548 128.865 52.2081C124.908 50.2997 120.538 48.7184 119.153 48.6945C115.755 48.6352 115.882 48.2304 121.599 40.8885C124.33 37.3833 127.692 32.6397 129.072 30.3489Z" fill="white"/>
<path d="M96.9045 54.4438C101.484 53.8373 105.985 52.6017 106.905 51.7003C110.262 48.4095 110.879 50.3293 110.879 64.0637C110.879 77.5429 110.735 78.1776 107.054 81.0156C102.578 84.4687 89.2899 88.5409 84.6236 87.892C81.7905 87.4971 81.3271 86.4928 80.943 79.9211C80.6782 75.3932 81.2149 71.5608 82.2912 70.2899C85.0467 67.0343 97.6599 61.1876 98.6254 62.7181C99.5132 64.1272 96.011 67.9681 91.3274 70.7201C87.5187 72.96 90.5964 76.3778 94.5534 74.3015C100.464 71.2011 106.882 59.7574 103.768 57.87C102.437 57.0632 85.6049 63.3119 82.6624 65.7056C79.0191 68.6706 80.4307 64.4643 84.6193 59.8787C87.8036 56.3932 90.2036 55.3311 96.9045 54.4438Z" fill="white"/>
<path d="M113.859 64.4248C114.679 60.8392 114.957 56.3763 114.479 54.5059C113.702 51.4704 113.964 51.2151 116.919 52.1334C118.741 52.699 124.704 54.331 130.169 55.7599C135.634 57.1888 141.081 59.3158 142.274 60.4866C144.772 62.9339 146.207 75.798 144.801 83.1442C143.94 87.6381 143.375 88.1459 139.232 88.1431C136.696 88.1431 132.387 87.0316 129.658 85.6747C124.701 83.2119 123.889 81.6701 121.807 70.7469C120.918 66.0865 121.118 65.4023 123.253 65.81C124.618 66.0695 126.482 68.466 127.397 71.1348C128.314 73.8021 129.828 76.2353 130.763 76.5414C133.275 77.3623 132.878 69.6086 130.216 65.8833C128.287 63.1821 121.144 58.5245 118.932 58.5245C118.266 58.5245 118.8 66.693 120.199 77.9223C120.708 82.0016 120.481 82.3557 118.135 81.1257C113.919 78.9139 112.138 71.9543 113.859 64.4248Z" fill="white"/>
<path d="M160.269 67.2205C162.08 65.5519 166.115 62.9381 169.236 61.4119C176.577 57.8207 179.433 57.7967 172.507 61.3837C165.518 65.0032 162.188 69.8822 158.572 81.7999C151.496 105.125 139.34 113.286 113.833 111.839C102.69 111.207 95.0512 108.376 95.0512 104.879C95.0512 103.022 100.479 103.89 109.44 107.184C124.517 112.725 143.238 103.857 148.317 88.7694C149.274 85.9286 149.794 79.0578 149.493 73.2182C149.197 67.4631 149.405 62.7562 149.956 62.7562C150.507 62.7562 152.313 64.4432 153.966 66.5054L156.975 70.2532L160.269 67.2205Z" fill="white"/>
<path d="M174.12 66.9878C170.196 66.9878 169.784 66.6775 171.312 64.872C173.619 62.1482 180.361 62.1651 185.773 64.9087C190.153 67.1288 191.447 69.8089 188.14 69.8089C187.107 69.8089 183.154 72.9868 179.357 76.8715C172.563 83.8226 168.227 86.0386 163.272 85.0977C156.787 83.8649 161.108 77.6402 170.813 74.2366C179.272 71.2702 181.226 66.9878 174.12 66.9878Z" fill="white"/>
</svg>
