<svg width="232" height="66" viewBox="0 0 232 66" fill="none" xmlns="http://www.w3.org/2000/svg">
<path fill-rule="evenodd" clip-rule="evenodd" d="M24.3019 2.97889C19.0663 8.50895 17.3084 14.0365 20.0639 16.3074C20.825 16.9341 23.0387 19.6123 24.9819 22.2572C28.4265 26.9452 28.5406 27.0184 29.5019 25.1665C30.0446 24.1216 32.1127 21.6396 34.0972 19.6514C37.7098 16.0331 38.6181 13.1172 36.9562 10.4806C36.387 9.57788 36.1124 9.71171 35.6723 11.1032C35.2214 12.532 30.1794 20.6737 28.9782 21.9147C28.812 22.0851 28.0534 20.9115 27.2915 19.3056C25.7264 16.009 26.1871 11.2229 28.2346 9.51637C30.1174 7.94621 30.6973 9.26119 29.5399 12.4763C28.5555 15.2135 28.7963 17.0322 30.1447 17.0322C31.0579 17.0322 34.3967 9.77239 34.3967 7.78745C34.3967 5.68864 31.5758 1.56 29.3092 0.341446C27.8846 -0.424932 27.1649 -0.0458949 24.3019 2.97889ZM16.415 19.5907C19.0208 22.5265 21.155 25.1656 21.1575 25.4549C21.1641 26.4365 16.8335 26.8197 14.1508 26.075C10.9213 25.1798 8.10036 22.342 9.27008 21.1667C9.79786 20.6363 11.0288 21.0561 12.8074 22.3752C14.3212 23.4974 16.1056 24.1773 16.8162 23.9038C18.7767 23.1474 11.1504 16.201 8.36011 16.201C5.85771 16.201 0.925706 18.1286 0.133209 19.417C-1.17135 21.5382 7.46504 32.8394 10.372 32.8144C11.0735 32.8078 14.8118 31.6906 18.6791 30.3316C22.5465 28.9726 25.8687 27.8554 26.0614 27.8488C26.255 27.843 25.6453 26.996 24.7072 25.9677C23.7691 24.9395 22.2429 22.5764 21.3147 20.717C19.2358 16.5526 18.0579 15.536 14.4784 14.8162L11.6765 14.2535L16.415 19.5907ZM40.141 15.0938C39.4337 15.2783 38.2053 16.5343 37.4111 17.8842C36.6178 19.2341 34.6846 22.0295 33.1144 24.095C29.8278 28.4215 29.755 28.66 31.7081 28.6949C32.5048 28.7091 35.0171 29.6409 37.292 30.7655C41.9965 33.0912 45.7555 33.383 48.095 31.605C49.6593 30.4156 49.6526 30.384 47.8269 30.3582C46.0947 30.3333 36.0694 27.8687 35.2975 27.2769C35.1114 27.1339 35.6218 26.2803 36.4317 25.3809C39.5322 21.938 47.6325 21.1002 47.6325 24.2222C47.6325 25.2645 47.0353 25.4698 44.944 25.149C41.7252 24.6544 40.1874 25.1058 40.1874 26.5463C40.1874 28.3209 49.0893 28.9909 51.5081 27.3983C53.4108 26.1456 56.7222 21.5183 56.7289 20.1035C56.738 18.1394 43.6336 14.182 40.141 15.0938ZM24.6667 30.4663C24.1381 30.9974 21.5505 31.7256 18.9174 32.083C15.0649 32.6058 13.6851 33.2317 11.8544 35.2856C9.44628 37.9879 8.63476 40.4666 10.7293 38.7194C12.421 37.3088 22.0981 33.6265 22.8633 34.102C24.6534 35.2142 20.964 41.9578 17.5656 43.7848C15.2907 45.0083 13.5213 42.9943 15.711 41.6743C18.4036 40.0526 20.4171 37.7892 19.9067 36.9589C19.3516 36.057 12.1001 39.5024 10.5159 41.4208C9.89713 42.1697 9.58857 44.4281 9.74079 47.0963C9.96166 50.969 10.228 51.5608 11.8569 51.7935C14.5396 52.1759 22.1792 49.7762 24.7527 47.7414C26.8688 46.069 26.9515 45.6949 26.9515 37.7518C26.9515 29.6583 26.5966 28.527 24.6667 30.4663ZM29.0213 32.1195C29.2959 33.2217 29.1362 35.8517 28.6647 37.9646C27.6753 42.4016 28.6995 46.5029 31.1233 47.8062C32.4717 48.531 32.6024 48.3224 32.3096 45.9185C31.5055 39.3012 31.1986 34.4877 31.5816 34.4877C32.853 34.4877 36.9595 37.2323 38.0688 38.8241C39.5992 41.0193 39.8275 45.5885 38.3831 45.1048C37.8454 44.9244 36.9752 43.4905 36.4482 41.9187C35.9221 40.3461 34.85 38.9338 34.0658 38.7809C32.8382 38.5407 32.7232 38.9438 33.2344 41.6901C34.4314 48.127 34.898 49.0356 37.7478 50.4869C39.3171 51.2865 41.7939 51.9415 43.2523 51.9415C45.6339 51.9431 45.959 51.6439 46.4537 48.9957C47.2619 44.6667 46.4372 37.086 45.0011 35.6439C44.3153 34.954 41.1834 33.7005 38.0415 32.8585C34.8996 32.0165 31.4715 31.0548 30.4243 30.7214C28.7251 30.1803 28.5746 30.3308 29.0213 32.1195ZM60.5019 36.1892C58.7076 37.0885 56.388 38.6288 55.3465 39.6121L53.453 41.3992L51.7232 39.1907C50.7727 37.9754 49.7345 36.9813 49.4177 36.9813C49.1009 36.9813 48.9809 39.7551 49.1513 43.1464C49.3242 46.5876 49.0256 50.6365 48.4755 52.3105C45.5553 61.2012 34.7921 66.427 26.1243 63.162C20.9722 61.2211 17.8519 60.7091 17.8519 61.8038C17.8519 63.8644 22.2437 65.5326 28.6498 65.905C43.3143 66.7578 50.3028 61.9484 54.3712 48.2035C56.4501 41.1806 58.3643 38.3054 62.3822 36.1725C66.3646 34.0588 64.7225 34.0729 60.5019 36.1892ZM61.6956 38.2281C60.8171 39.2921 61.0537 39.4749 63.3096 39.4749C67.3953 39.4749 66.2719 41.9985 61.4086 43.7466C55.8288 45.7523 53.3446 49.4204 57.073 50.1469C59.922 50.7013 62.4145 49.3955 66.3207 45.2993C68.5038 43.0101 70.7762 41.1374 71.3702 41.1374C73.2712 41.1374 72.5275 39.5581 70.0094 38.2497C66.8981 36.633 63.0217 36.6231 61.6956 38.2281ZM86.4318 25.3749C83.0864 33.7918 82.2344 41.0383 84.4878 41.9069C86.7213 42.768 89.7466 41.4156 91.2298 38.8921L92.6841 36.4176L93.5486 39.1049C94.8523 43.157 98.0992 43.2335 101.098 39.2836L103.389 36.2646L104.278 39.0284C104.964 41.1613 105.628 41.7914 107.19 41.7914C109.16 41.7914 109.214 41.621 109.282 35.1417C109.321 31.4843 109.528 27.9309 109.741 27.2451C110.015 26.3682 109.526 25.9983 108.092 25.9983C106.486 25.9983 105.522 26.9525 103.542 30.5043C101.247 34.623 98.9628 36.8282 98.9628 34.9255C98.9628 34.5016 99.7024 31.9955 100.607 29.3556C102.373 24.1962 102.227 23.0891 99.781 23.0891C98.7511 23.0891 96.9344 25.079 94.4701 28.9076C91.0619 34.2007 89.036 36.0635 89.036 33.904C89.036 33.4518 89.7805 31.1136 90.6896 28.7089C92.809 23.1065 92.8065 23.0891 89.8425 23.0891C87.8844 23.0891 87.1432 23.5861 86.4318 25.3749ZM152.81 24.6077C151.581 26.916 151.675 28.0763 153.092 28.0763C154.582 28.0763 155.661 24.867 154.547 23.7474C153.988 23.1855 153.417 23.4689 152.81 24.6077ZM168.139 23.7549C167.914 24.1214 166.594 27.955 165.206 32.2748C162.835 39.6535 162.77 40.1954 164.119 41.2328C167.616 43.9201 176.965 40.2686 178.087 35.7775C178.814 32.8683 175.742 30.2267 172.411 30.8967C169.914 31.3979 169.561 30.6514 171.011 27.9284C171.767 26.5103 172.442 26.3108 175.061 26.7314C178.244 27.2435 179.39 26.4006 178.6 24.1281C178.197 22.9652 168.83 22.6311 168.139 23.7549ZM221.931 28.7072C220.642 30.8019 218.902 40.035 219.653 40.7897C220.668 41.8096 223.049 40.1098 223.049 38.3651C223.049 36.6694 223.851 36.9637 225.714 39.3434C226.889 40.8438 228.015 41.3932 229.549 41.2137C232.444 40.8754 232.887 38.4175 230.177 37.7342C228.007 37.1864 226.276 33.7834 227.892 33.2423C228.401 33.0719 229.66 32.2407 230.69 31.3945C232.035 30.289 232.312 29.6 231.67 28.9425C231.023 28.28 230.19 28.4928 228.644 29.7147C225.981 31.8193 225.531 31.8226 225.531 29.7388C225.531 28.0988 222.789 27.3133 221.931 28.7072ZM114.558 31.1934C114.057 32.4502 113.461 35.2555 113.232 37.4275C112.759 41.9102 113.684 42.4472 117.162 39.7133C119.77 37.6635 120.177 37.6635 120.711 39.7133C120.959 40.6675 121.839 41.3757 122.776 41.3757C124.184 41.3757 124.464 40.6601 124.815 36.1807C125.039 33.3238 124.914 30.6473 124.539 30.2333C124.148 29.8044 122.873 30.6074 121.566 32.1036C118.625 35.4708 117.983 35.4093 118.563 31.8168C118.979 29.2459 118.826 28.9076 117.25 28.9076C116.077 28.9076 115.156 29.6889 114.558 31.1934ZM130.644 29.9466C129.621 31.3031 127.916 37.3369 127.916 39.6019C127.916 42.069 130.105 41.8354 131.468 39.2221L132.591 37.0684L133.996 39.2221C135.532 41.5786 138.692 42.1056 140.216 40.2603C141.304 38.9436 140.636 38.0509 138.562 38.0509C137.744 38.0509 136.659 37.2704 136.151 36.317C135.088 34.3221 134.956 34.5249 138.491 32.7187C139.984 31.9548 140.986 30.9723 140.717 30.5342C139.989 29.3514 138.184 29.5709 137.016 30.9856C135.503 32.8176 133.778 32.5549 134.294 30.57C134.62 29.3182 134.32 28.9076 133.077 28.9076C132.17 28.9076 131.075 29.3755 130.644 29.9466ZM151.552 30.5035C150.765 31.3771 149.94 34.106 149.671 36.7185C149.26 40.7274 149.388 41.3757 150.592 41.3757C152.321 41.3757 154.388 36.6644 154.388 32.7237C154.388 29.1993 153.414 28.4363 151.552 30.5035ZM184.117 31.594C179.213 38.1282 177.99 41.3757 180.435 41.3757C181.111 41.3757 182.209 40.0666 182.875 38.4665C184.389 34.825 185.64 34.741 185.978 38.2587C186.175 40.3193 186.63 40.9601 187.891 40.9601C189.268 40.9601 189.587 40.3234 189.791 37.169C190.073 32.8292 188.862 28.9076 187.24 28.9076C186.632 28.9076 185.227 30.1161 184.117 31.594ZM195.072 29.9732C194.555 30.5982 193.687 33.0545 193.141 35.4309C191.847 41.0607 192.849 42.3325 196.662 39.9053L199.333 38.2072L200.722 39.9303C203.189 42.9916 204.85 41.2993 204.85 35.7218C204.85 33.0403 204.595 30.5908 204.284 30.2782C203.972 29.9657 202.47 30.9241 200.946 32.4094L198.174 35.1084L198.41 32.2482C198.667 29.1253 196.815 27.8635 195.072 29.9732ZM211.261 29.8053C209.404 30.8917 207.331 34.9131 207.331 37.4275C207.331 41.5062 211.294 42.6442 215.078 39.6526C217.51 37.7317 217.896 36.3885 216.017 36.3885C215.335 36.3885 214.776 36.7625 214.776 37.2197C214.776 37.6768 214.218 38.0509 213.536 38.0509C211.801 38.0509 211.918 33.5748 213.69 32.126C214.913 31.1277 215.019 31.1668 214.544 32.4402C213.881 34.2165 215.025 34.3503 216.422 32.6588C218.756 29.8335 214.877 27.689 211.261 29.8053ZM173.119 35.1525C173.793 36.9138 171.93 38.8821 169.591 38.8821C167.316 38.8821 166.999 37.1349 168.923 35.2007C170.57 33.5466 172.498 33.5241 173.119 35.1525Z" fill="white"/>
</svg>
