<svg width="155" height="143" viewBox="0 0 155 143" fill="none" xmlns="http://www.w3.org/2000/svg">
<g opacity="0.5" filter="url(#filter0_d)">
<path d="M44.7153 37.356C39.1235 32.711 42.6908 21.4047 53.3153 10.0932C59.1253 3.90612 60.5857 3.13082 63.4765 4.69841C68.0761 7.19092 73.8005 15.6359 73.8005 19.9289C73.8005 23.989 67.0252 38.8386 65.172 38.8386C62.4357 38.8386 61.9472 35.1185 63.9448 29.5197C66.2933 22.9433 65.1165 20.2536 61.2958 23.4653C57.141 26.9558 56.206 36.7456 59.3821 43.4887C60.9282 46.7735 62.4676 49.1742 62.805 48.8256C65.2424 46.2872 75.4742 29.6337 76.3891 26.711C77.2821 23.8649 77.8394 23.5911 78.9944 25.4375C82.3669 30.8306 80.5237 36.795 73.1928 44.196C69.1656 48.2629 64.9688 53.3397 63.8676 55.4768C61.9169 59.2649 61.6853 59.1153 54.6952 49.5261C50.7519 44.116 46.2597 38.638 44.7153 37.356Z" fill="white"/>
<path d="M46.9345 56.0668C46.9295 55.4751 42.5984 50.077 37.3105 44.0718L27.6949 33.1548L33.3807 34.3058C40.6444 35.7782 43.0349 37.8576 47.2535 46.3756C49.137 50.179 52.2342 55.0127 54.1379 57.1158C56.0415 59.219 57.2787 60.9515 56.8859 60.9634C56.4947 60.977 49.7531 63.2621 41.9051 66.0419C34.0572 68.8218 26.4711 71.1068 25.0476 71.1204C19.1486 71.1715 1.62301 48.0554 4.27032 43.7165C5.87852 41.0812 15.8869 37.1384 20.965 37.1384C26.6273 37.1384 42.1032 51.347 38.1247 52.8942C36.6827 53.4536 33.0617 52.0628 29.9897 49.7675C26.3805 47.0693 23.8826 46.2107 22.8116 47.2954C20.4379 49.6995 26.1623 55.504 32.7159 57.3352C38.16 58.8585 46.948 58.0748 46.9345 56.0668Z" fill="white"/>
<path d="M79.9177 40.5813C81.5292 37.8202 84.0221 35.2512 85.4574 34.8737C92.5449 33.0086 119.137 41.1033 119.119 45.1209C119.105 48.0146 112.385 57.4797 108.524 60.0419C103.616 63.2995 85.5514 61.9291 85.5514 58.2992C85.5514 55.3527 88.6721 54.4295 95.2039 55.4411C99.4477 56.0974 100.66 55.6775 100.66 53.5454C100.66 47.1594 84.2219 48.8732 77.9301 55.9155C76.2867 57.7551 75.2509 59.5012 75.6286 59.7937C77.1948 61.0042 97.539 66.0453 101.054 66.0963C104.759 66.149 104.773 66.2136 101.598 68.6466C96.8508 72.2834 89.2227 71.6866 79.6759 66.9294C75.0595 64.6291 69.9613 62.7231 68.3447 62.6942C64.3813 62.6228 64.529 62.1349 71.1985 53.2853C74.3847 49.0603 78.3078 43.3424 79.9177 40.5813Z" fill="white"/>
<path d="M42.3886 69.6243C47.7319 68.8932 52.9829 67.4038 54.0556 66.3174C57.972 62.3508 58.6922 64.6648 58.6922 81.2197C58.6922 97.4669 58.5243 98.232 54.2302 101.653C49.0077 105.815 33.5049 110.723 28.0609 109.941C24.7555 109.465 24.215 108.255 23.7668 100.333C23.4579 94.8757 24.0841 90.2563 25.3397 88.7244C28.5544 84.8003 43.2699 77.753 44.3963 79.5977C45.4321 81.2962 41.3461 85.9259 35.882 89.243C31.4384 91.9429 35.0292 96.0625 39.6456 93.5598C46.5417 89.8227 54.0287 76.029 50.396 73.7541C48.8432 72.7816 29.2058 80.3135 25.7728 83.1987C21.5223 86.7726 23.1692 81.7025 28.0559 76.1752C31.7708 71.974 34.5709 70.6937 42.3886 69.6243Z" fill="white"/>
<path d="M62.1687 81.6549C63.1256 77.333 63.4496 71.9536 62.8923 69.6991C61.9858 66.0402 62.2913 65.7325 65.7393 66.8393C67.8646 67.5211 74.8211 69.4883 81.1969 71.2106C87.5726 72.9329 93.9281 75.4968 95.3198 76.908C98.234 79.8578 99.9077 95.3637 98.2676 104.218C97.2637 109.635 96.604 110.247 91.771 110.244C88.8114 110.244 83.7854 108.904 80.6009 107.269C74.8178 104.3 73.871 102.442 71.4419 89.2753C70.4045 83.6578 70.6378 82.8332 73.129 83.3245C74.7204 83.6374 76.896 86.526 77.9637 89.7428C79.033 92.9579 80.799 95.8908 81.8902 96.2597C84.8212 97.2493 84.3578 87.9032 81.2522 83.413C79.0011 80.1571 70.668 74.543 68.0879 74.543C67.3106 74.543 67.9334 84.3889 69.5651 97.9242C70.1594 102.841 69.8941 103.268 67.1579 101.785C62.2393 99.1195 60.161 90.7306 62.1687 81.6549Z" fill="white"/>
<path d="M116.314 85.0247C118.427 83.0134 123.134 79.8629 126.775 78.0233C135.34 73.6946 138.672 73.6657 130.591 77.9893C122.438 82.352 118.553 88.233 114.334 102.598C106.079 130.713 91.8969 140.55 62.1385 138.806C49.1387 138.044 40.2264 134.632 40.2264 130.417C40.2264 128.178 46.5585 129.225 57.0135 133.195C74.6029 139.873 96.4445 129.184 102.37 110.999C103.487 107.575 104.093 99.2929 103.742 92.254C103.396 85.3172 103.639 79.6436 104.282 79.6436C104.925 79.6436 107.032 81.677 108.961 84.1627L112.471 88.6802L116.314 85.0247Z" fill="white"/>
<path d="M132.473 84.7442C127.895 84.7442 127.415 84.3702 129.198 82.1939C131.889 78.9108 139.755 78.9312 146.069 82.2381C151.179 84.9142 152.688 88.1446 148.83 88.1446C147.625 88.1446 143.013 91.9752 138.583 96.6576C130.656 105.036 125.599 107.707 119.817 106.573C112.251 105.087 117.292 97.5842 128.615 93.4816C138.484 89.906 140.764 84.7442 132.473 84.7442Z" fill="white"/>
</g>
<defs>
<filter id="filter0_d" x="0" y="0" width="155" height="143" filterUnits="userSpaceOnUse" color-interpolation-filters="sRGB">
<feFlood flood-opacity="0" result="BackgroundImageFix"/>
<feColorMatrix in="SourceAlpha" type="matrix" values="0 0 0 0 0 0 0 0 0 0 0 0 0 0 0 0 0 0 127 0"/>
<feOffset/>
<feGaussianBlur stdDeviation="2"/>
<feColorMatrix type="matrix" values="0 0 0 0 0.235294 0 0 0 0 0.0901961 0 0 0 0 0.184314 0 0 0 1 0"/>
<feBlend mode="normal" in2="BackgroundImageFix" result="effect1_dropShadow"/>
<feBlend mode="normal" in="SourceGraphic" in2="effect1_dropShadow" result="shape"/>
</filter>
</defs>
</svg>
